<?xml version="1.0" encoding="UTF-8" standalone="no"?>
<!DOCTYPE svg PUBLIC "-//W3C//DTD SVG 1.1//EN"
 "http://www.w3.org/Graphics/SVG/1.1/DTD/svg11.dtd">
<!-- Generated by graphviz version 8.1.0 (20230707.0739)
 -->
<!-- Pages: 1 -->
<svg width="212pt" height="247pt"
 viewBox="0.00 0.00 212.25 246.93" xmlns="http://www.w3.org/2000/svg" xmlns:xlink="http://www.w3.org/1999/xlink">
<g id="graph0" class="graph" transform="scale(1 1) rotate(0) translate(4 242.93)">
<polygon fill="white" stroke="none" points="-4,4 -4,-242.93 208.25,-242.93 208.25,4 -4,4"/>
<!-- &#45;1 -->
<g id="node1" class="node">
<title>&#45;1</title>
<polygon fill="lightgray" stroke="black" points="23.5,-172.82 0,-172.82 0,-154.32 23.5,-154.32 23.5,-172.82"/>
<text text-anchor="middle" x="11.75" y="-160.27" font-family="Times,serif" font-size="9.00">&#45;1</text>
</g>
<!-- 0 -->
<g id="node4" class="node">
<title>0</title>
<ellipse fill="lightblue" stroke="black" cx="95.75" cy="-14.5" rx="14.5" ry="14.5"/>
<text text-anchor="middle" x="95.75" y="-11.2" font-family="Times,serif" font-size="9.00">0</text>
</g>
<!-- &#45;1&#45;&gt;0 -->
<g id="edge1" class="edge">
<title>&#45;1&#45;&gt;0</title>
<path fill="none" stroke="red" stroke-width="0.53" stroke-dasharray="1,5" d="M9.85,-154C6.36,-136.05 0.75,-93.78 17.75,-64.99 29.92,-44.39 54.39,-30.99 72.7,-23.39"/>
<polygon fill="red" stroke="red" stroke-width="0.53" points="73.8,-26.72 81.86,-19.85 71.27,-20.19 73.8,-26.72"/>
</g>
<!-- 1 -->
<g id="node5" class="node">
<title>1</title>
<ellipse fill="lightblue" stroke="black" cx="100.75" cy="-85.85" rx="14.5" ry="14.5"/>
<text text-anchor="middle" x="100.75" y="-82.55" font-family="Times,serif" font-size="9.00">1</text>
</g>
<!-- &#45;1&#45;&gt;1 -->
<g id="edge2" class="edge">
<title>&#45;1&#45;&gt;1</title>
<path fill="none" stroke="green" stroke-width="0.29" d="M22.07,-153.89C35.08,-142.94 58.12,-123.49 77.75,-106.71 79.38,-105.32 81.07,-103.87 82.76,-102.41"/>
<polygon fill="green" stroke="green" stroke-width="0.29" points="84.72,-105.35 90,-96.17 80.15,-100.05 84.72,-105.35"/>
</g>
<!-- 476 -->
<g id="node8" class="node">
<title>476</title>
<ellipse fill="white" stroke="black" cx="47.75" cy="-85.85" rx="20.86" ry="20.86"/>
<text text-anchor="middle" x="47.75" y="-82.55" font-family="Times,serif" font-size="9.00">476</text>
</g>
<!-- &#45;1&#45;&gt;476 -->
<g id="edge7" class="edge">
<title>&#45;1&#45;&gt;476</title>
<path fill="none" stroke="red" stroke-width="0.24" d="M15.88,-153.88C20.49,-144.2 28.17,-128.04 34.83,-114.02"/>
<polygon fill="red" stroke="red" stroke-width="0.24" points="37.89,-115.74 39.02,-105.2 31.57,-112.73 37.89,-115.74"/>
</g>
<!-- &#45;2 -->
<g id="node2" class="node">
<title>&#45;2</title>
<polygon fill="lightgray" stroke="black" points="201.5,-95.1 178,-95.1 178,-76.6 201.5,-76.6 201.5,-95.1"/>
<text text-anchor="middle" x="189.75" y="-82.55" font-family="Times,serif" font-size="9.00">&#45;2</text>
</g>
<!-- &#45;2&#45;&gt;0 -->
<g id="edge3" class="edge">
<title>&#45;2&#45;&gt;0</title>
<path fill="none" stroke="green" stroke-width="0.27" stroke-dasharray="1,5" d="M178.66,-76.29C174.06,-72.77 168.67,-68.66 163.75,-64.99 147.46,-52.85 128.8,-39.28 115.15,-29.43"/>
<polygon fill="green" stroke="green" stroke-width="0.27" points="117.52,-26.83 107.36,-23.82 113.43,-32.51 117.52,-26.83"/>
</g>
<!-- 2 -->
<g id="node6" class="node">
<title>2</title>
<ellipse fill="lightblue" stroke="black" cx="189.75" cy="-14.5" rx="14.5" ry="14.5"/>
<text text-anchor="middle" x="189.75" y="-11.2" font-family="Times,serif" font-size="9.00">2</text>
</g>
<!-- &#45;2&#45;&gt;2 -->
<g id="edge4" class="edge">
<title>&#45;2&#45;&gt;2</title>
<path fill="none" stroke="green" stroke-width="0.29" d="M189.75,-76.35C189.75,-67.1 189.75,-51.91 189.75,-39.03"/>
<polygon fill="green" stroke="green" stroke-width="0.29" points="193.25,-39.34 189.75,-29.34 186.25,-39.34 193.25,-39.34"/>
</g>
<!-- &#45;3 -->
<g id="node3" class="node">
<title>&#45;3</title>
<polygon fill="lightgray" stroke="black" points="112.5,-238.93 89,-238.93 89,-220.43 112.5,-220.43 112.5,-238.93"/>
<text text-anchor="middle" x="100.75" y="-226.38" font-family="Times,serif" font-size="9.00">&#45;3</text>
</g>
<!-- &#45;3&#45;&gt;0 -->
<g id="edge5" class="edge">
<title>&#45;3&#45;&gt;0</title>
<path fill="none" stroke="red" stroke-width="0.63" d="M108.96,-220.03C116.29,-211.68 126.5,-198.27 130.75,-184.43 137.54,-162.32 125.45,-70.45 123.75,-64.99 120.48,-54.5 114.76,-43.77 109.33,-35"/>
<polygon fill="red" stroke="red" stroke-width="0.63" points="112.29,-33.13 103.91,-26.65 106.43,-36.95 112.29,-33.13"/>
</g>
<!-- &#45;3&#45;&gt;1 -->
<g id="edge6" class="edge">
<title>&#45;3&#45;&gt;1</title>
<path fill="none" stroke="red" stroke-width="0.68" stroke-dasharray="1,5" d="M92.54,-220.03C85.21,-211.68 75,-198.27 70.75,-184.43 65.31,-166.7 66.23,-160.69 70.75,-142.71 73.89,-130.22 80.43,-117.48 86.6,-107.33"/>
<polygon fill="red" stroke="red" stroke-width="0.68" points="90.04,-108.44 92.51,-98.14 84.16,-104.65 90.04,-108.44"/>
</g>
<!-- 492 -->
<g id="node7" class="node">
<title>492</title>
<ellipse fill="white" stroke="black" cx="100.75" cy="-163.57" rx="20.86" ry="20.86"/>
<text text-anchor="middle" x="100.75" y="-160.27" font-family="Times,serif" font-size="9.00">492</text>
</g>
<!-- &#45;3&#45;&gt;492 -->
<g id="edge9" class="edge">
<title>&#45;3&#45;&gt;492</title>
<path fill="none" stroke="red" stroke-width="0.25" d="M100.75,-220.03C100.75,-213.46 100.75,-203.99 100.75,-194.74"/>
<polygon fill="red" stroke="red" stroke-width="0.25" points="104.25,-194.92 100.75,-184.92 97.25,-194.92 104.25,-194.92"/>
</g>
<!-- 492&#45;&gt;1 -->
<g id="edge10" class="edge">
<title>492&#45;&gt;1</title>
<path fill="none" stroke="green" stroke-width="0.17" d="M100.75,-142.28C100.75,-132.53 100.75,-120.77 100.75,-110.6"/>
<polygon fill="green" stroke="green" stroke-width="0.17" points="104.25,-110.73 100.75,-100.73 97.25,-110.73 104.25,-110.73"/>
</g>
<!-- 476&#45;&gt;0 -->
<g id="edge8" class="edge">
<title>476&#45;&gt;0</title>
<path fill="none" stroke="red" stroke-width="0.36" d="M59.37,-68.06C66.22,-58.16 74.92,-45.59 82.1,-35.22"/>
<polygon fill="red" stroke="red" stroke-width="0.36" points="84.88,-37.35 87.69,-27.14 79.12,-33.37 84.88,-37.35"/>
</g>
</g>
</svg>
